HIERARCHY
ROOT hip
{
  OFFSET 0 0 0
  CHANNELS 6 Xposition Yposition Zposition Zrotation Yrotation Xrotation
  JOINT abdomen
  {
    OFFSET 0 20.6881 -0.73152
    CHANNELS 3 Zrotation Xrotation Yrotation
    JOINT chest
    {
      OFFSET 0 11.7043 -0.48768
      CHANNELS 3 Zrotation Xrotation Yrotation
      JOINT neck
      {
        OFFSET 0 22.1894 -2.19456
        CHANNELS 3 Zrotation Xrotation Yrotation
        JOINT head
        {
          OFFSET -0.24384 7.07133 1.2192
          CHANNELS 3 Zrotation Xrotation Yrotation
          JOINT leftEye
          {
            OFFSET 4.14528 8.04674 8.04672
            CHANNELS 3 Zrotation Xrotation Yrotation
            End Site
            {
              OFFSET 1 0 0
            }
          }
          JOINT rightEye
          {
            OFFSET -3.6576 8.04674 8.04672
            CHANNELS 3 Zrotation Xrotation Yrotation
            End Site
            {
              OFFSET 1 0 0
            }
          }
        }
      }
      JOINT rCollar
      {
        OFFSET -2.68224 19.2634 -4.8768
        CHANNELS 3 Zrotation Xrotation Yrotation
        JOINT rShldr
        {
          OFFSET -8.77824 -1.95073 1.46304
          CHANNELS 3 Zrotation Xrotation Yrotation
          JOINT rForeArm
          {
            OFFSET -28.1742 -1.7115 0.48768
            CHANNELS 3 Zrotation Xrotation Yrotation
            JOINT rHand
            {
              OFFSET -22.5879 0.773209 7.07136
              CHANNELS 3 Zrotation Xrotation Yrotation
              JOINT rThumb1
              {
                OFFSET -1.2192 -0.487915 3.41376
                CHANNELS 3 Zrotation Xrotation Yrotation
                JOINT rThumb2
                {
                  OFFSET -3.37035 -0.52449 3.41376
                  CHANNELS 3 Zrotation Xrotation Yrotation
                  End Site
                  {
                    OFFSET -1.78271 -1.18214 1.43049
                  }
                }
              }
              JOINT rIndex1
              {
                OFFSET -7.75947 0.938293 5.60832
                CHANNELS 3 Zrotation Xrotation Yrotation
                JOINT rIndex2
                {
                  OFFSET -2.54057 -0.884171 1.56538
                  CHANNELS 3 Zrotation Xrotation Yrotation
                  End Site
                  {
                    OFFSET -1.62519 -0.234802 1.16502
                  }
                }
              }
              JOINT rMid1
              {
                OFFSET -8.24714 1.18213 3.41376
                CHANNELS 3 Zrotation Xrotation Yrotation
                JOINT rMid2
                {
                  OFFSET -3.10165 -0.590103 1.0647
                  CHANNELS 3 Zrotation Xrotation Yrotation
                  End Site
                  {
                    OFFSET -2.48547 -0.328903 0.83742
                  }
                }
              }
              JOINT rRing1
              {
                OFFSET -8.82822 0.546677 1.51678
                CHANNELS 3 Zrotation Xrotation Yrotation
                JOINT rRing2
                {
                  OFFSET -2.60934 -0.819778 -0.0198488
                  CHANNELS 3 Zrotation Xrotation Yrotation
                  End Site
                  {
                    OFFSET -2.33842 -0.294052 0.168128
                  }
                }
              }
              JOINT rPinky1
              {
                OFFSET -8.27202 -0.0477905 -0.4584
                CHANNELS 3 Zrotation Xrotation Yrotation
                JOINT rPinky2
                {
                  OFFSET -1.82734 -0.647385 -0.700984
                  CHANNELS 3 Zrotation Xrotation Yrotation
                  End Site
                  {
                    OFFSET -1.69225 -0.51767 -0.607171
                  }
                }
              }
            }
          }
        }
      }
      JOINT lCollar
      {
        OFFSET 2.68224 19.2634 -4.8768
        CHANNELS 3 Zrotation Xrotation Yrotation
        JOINT lShldr
        {
          OFFSET 8.77824 -1.95073 1.46304
          CHANNELS 3 Zrotation Xrotation Yrotation
          JOINT lForeArm
          {
            OFFSET 28.1742 -1.7115 0.48768
            CHANNELS 3 Zrotation Xrotation Yrotation
            JOINT lHand
            {
              OFFSET 22.5879 0.773209 7.07136
              CHANNELS 3 Zrotation Xrotation Yrotation
              JOINT lThumb1
              {
                OFFSET 1.2192 -0.487915 3.41376
                CHANNELS 3 Zrotation Xrotation Yrotation
                JOINT lThumb2
                {
                  OFFSET 3.37035 -0.52449 3.41376
                  CHANNELS 3 Zrotation Xrotation Yrotation
                  End Site
                  {
                    OFFSET 1.78271 -1.18214 1.43049
                  }
                }
              }
              JOINT lIndex1
              {
                OFFSET 7.75947 0.938293 5.60832
                CHANNELS 3 Zrotation Xrotation Yrotation
                JOINT lIndex2
                {
                  OFFSET 2.54057 -0.884171 1.56538
                  CHANNELS 3 Zrotation Xrotation Yrotation
                  End Site
                  {
                    OFFSET 1.62519 -0.234802 1.16502
                  }
                }
              }
              JOINT lMid1
              {
                OFFSET 8.24714 1.18213 3.41376
                CHANNELS 3 Zrotation Xrotation Yrotation
                JOINT lMid2
                {
                  OFFSET 3.10165 -0.590103 1.0647
                  CHANNELS 3 Zrotation Xrotation Yrotation
                  End Site
                  {
                    OFFSET 2.48547 -0.328903 0.83742
                  }
                }
              }
              JOINT lRing1
              {
                OFFSET 8.82822 0.546677 1.51678
                CHANNELS 3 Zrotation Xrotation Yrotation
                JOINT lRing2
                {
                  OFFSET 2.60934 -0.819778 -0.0198488
                  CHANNELS 3 Zrotation Xrotation Yrotation
                  End Site
                  {
                    OFFSET 2.33842 -0.294052 0.168128
                  }
                }
              }
              JOINT lPinky1
              {
                OFFSET 8.27202 -0.0477905 -0.4584
                CHANNELS 3 Zrotation Xrotation Yrotation
                JOINT lPinky2
                {
                  OFFSET 1.82734 -0.647385 -0.700984
                  CHANNELS 3 Zrotation Xrotation Yrotation
                  End Site
                  {
                    OFFSET 1.69225 -0.51767 -0.607171
                  }
                }
              }
            }
          }
        }
      }
    }
  }
  JOINT rButtock
  {
    OFFSET -8.77824 4.35084 1.2192
    CHANNELS 3 Zrotation Xrotation Yrotation
    JOINT rThigh
    {
      OFFSET 0 -1.70687 -2.19456
      CHANNELS 3 Zrotation Xrotation Yrotation
      JOINT rShin
      {
        OFFSET 0 -36.8199 0.73152
        CHANNELS 3 Zrotation Xrotation Yrotation
        JOINT rFoot
        {
          OFFSET 0.73152 -45.1104 -5.12064
          CHANNELS 3 Zrotation Xrotation Yrotation
          End Site
          {
            OFFSET -1.1221 -3.69964 12.103
          }
        }
      }
    }
  }
  JOINT lButtock
  {
    OFFSET 8.77824 4.35084 1.2192
    CHANNELS 3 Zrotation Xrotation Yrotation
    JOINT lThigh
    {
      OFFSET 0 -1.70687 -2.19456
      CHANNELS 3 Zrotation Xrotation Yrotation
      JOINT lShin
      {
        OFFSET 0 -36.8199 0.73152
        CHANNELS 3 Zrotation Xrotation Yrotation
        JOINT lFoot
        {
          OFFSET -0.73152 -45.1104 -5.12064
          CHANNELS 3 Zrotation Xrotation Yrotation
          End Site
          {
            OFFSET 1.1221 -3.69964 12.103
          }
        }
      }
    }
  }
}
MOTION
Frames:	4
Frame Time:	0.03333
0.0 0.0 0.0 0.0 0.0 0.0 0.0 0.0 0.0 0.0 0.0 0.0 0.0 0.0 0.0 0.0 0.0 0.0 0.0 0.0 0.0 0.0 0.0 0.0 0.0 0.0 0.0 0.0 0.0 0.0 0.0 0.0 0.0 0.0 0.0 0.0 0.0 0.0 0.0 0.0 0.0 0.0 0.0 0.0 0.0 0.0 0.0 0.0 0.0 0.0 0.0 0.0 0.0 0.0 0.0 0.0 0.0 0.0 0.0 0.0 0.0 0.0 0.0 0.0 0.0 0.0 0.0 0.0 0.0 0.0 0.0 0.0 0.0 0.0 0.0 0.0 0.0 0.0 0.0 0.0 0.0 0.0 0.0 0.0 0.0 0.0 0.0 0.0 0.0 0.0 0.0 0.0 0.0 0.0 0.0 0.0 0.0 0.0 0.0 0.0 0.0 0.0 0.0 0.0 0.0 0.0 0.0 0.0 0.0 0.0 0.0 0.0 0.0 0.0 0.0 0.0 0.0 0.0 0.0 0.0 0.0 0.0 0.0 0.0 0.0 0.0 0.0 0.0 0.0 0.0 0.0 0.0
-5.223 82.0179 -97.8308 -2.68957 -0.999633 3.908081 -2.170362 4.159889 0.067276 1.962032 -7.106748 7.296959 7.127677 18.936347 87.0765 -33.034586 4.75055 -97.254865 0.000966 0.0 0.00244 -0.00029 0.0 -0.00313 -120.996212 60.3801 124.634867 -117.605387 17.528134 89.481339 7.606145 -52.31144 -62.6827 165.74074 -25.963586 142.329913 -78.030538 38.688965 42.412842 149.484845 -53.438674 64.831048 -1.160463 1.86132 0.668774 -161.132016 -12.814802 110.112833 2.100703 -6.305321 -1.081459 -42.089842 58.554698 36.098778 -145.120935 1.975612 -179.74848 11.513088 22.801362 -6.379964 0.09949 0.258245 0.090821 -147.758069 13.055631 -144.027094 28.502691 57.371568 -30.876188 -176.930873 -27.268496 -93.40172 -28.579753 70.428052 -1.641882 17.694241 64.611526 -11.246674 11.582837 10.885357 -2.850993 139.114282 -42.660448 -112.335626 145.906648 -7.259739 -118.949856 6.042932 27.876829 1.768656 141.107591 35.600462 -129.173233 -3.30228 0.205011 -0.323874 72.96496 -72.143046 89.990155 150.960578 -1.647492 -176.568276 -14.769371 51.319065 -11.782867 -0.675126 -2.467721 1.212074 -0.0 -0.00036 -0.00019 -6.728113 -23.684084 -16.36661 -22.41052 40.7876 -52.344709 -174.961373 -64.992877 -78.010326 0.0 -0.000461 0.002418 9.796084 -24.109328 22.913245 15.889942 37.719223 -63.15957 -172.575873 -35.771725 -54.916756
-5.338 81.97879999999999 -97.9318 -2.66993 -1.195181 3.549804 -0.639423 0.745886 -139.392633 1.70344 2.635468 146.332193 6.863204 18.130815 81.718902 -32.40325 1.517981 -92.599764 0.002882 -0.0 -0.003932 -0.001483 -0.0 0.002873 -29.637009 58.070976 32.03719 -115.880021 -7.127213 121.134438 -73.417106 -55.701436 -125.789098 113.496862 -67.591139 97.573926 -85.829254 38.630212 47.95557 -80.243375 -2.757522 61.002777 -151.353866 -17.157985 121.133633 -79.233714 57.454416 61.547746 -82.840514 61.110919 74.53232 -13.321222 36.380513 10.868075 0.004815 1.771123 0.558202 10.17531 0.163957 -0.049787 -157.332134 57.246549 -150.509883 -162.650209 55.686001 -147.237757 14.147418 43.061785 -15.995806 94.575772 -3.251065 -128.662962 -172.688513 17.272302 152.891263 19.715974 66.670856 -12.744439 78.03115 38.689241 -42.412268 138.721339 -26.910479 -82.748685 148.885361 -12.610498 -120.243717 -3.954297 13.275589 7.246664 160.097986 -4.900916 -142.969905 128.927753 51.840292 -118.066896 -0.005474 0.605639 -0.189306 156.196248 -14.438879 -173.560982 126.796231 -26.61884 124.512164 -3.115792 0.136696 1.634567 -179.996719 75.749261 -0.002895 169.667188 51.4475 -0.0 -18.128291 45.904799 -83.81291 173.318891 27.152813 -85.390282 -179.995077 75.75096 -0.00405 -164.776534 48.291189 -180.0 -23.423234 -50.594852 -61.972946 122.160896 58.614348 142.130846
-5.4025 81.8665 -97.9478 -2.74454 -1.161571 2.822128 -3.218651 5.811652 29.046146 -0.781693 -7.943163 -22.463178 -13.898272 22.689876 -84.386842 37.902679 10.715722 70.936395 0.005117 0.0 0.000441 -0.000479 -0.0 0.00167 3.54161 -62.053039 -13.039669 70.309954 25.075861 -54.681245 168.42389 -20.826779 109.148998 171.587729 -10.51526 144.987956 -93.743667 37.96455 53.548734 -152.821511 -29.519434 79.508195 73.420257 -73.571122 26.564789 -154.904959 -12.59191 115.485396 -159.36568 -2.685465 142.597266 -161.225152 1.250793 142.229727 0.001518 0.063844 0.019565 10.319785 0.039347 -0.060395 -132.044164 -18.855009 -129.579579 22.676707 57.958835 6.348746 155.417295 -2.951522 -161.718274 149.683795 86.744932 -90.284179 -17.044264 80.081095 -12.469752 11.831918 56.346044 -7.44789 -116.309341 -50.010461 -56.954669 134.773762 23.886048 -89.538718 134.540215 10.540785 -112.294252 -179.739932 -42.257368 -114.236365 89.835311 60.700376 -81.262369 167.888553 -19.518186 -144.08539 -0.000458 0.022443 -0.008417 148.215158 -76.78015 171.083104 1.149588 -2.914383 1.065743 -1.690307 -2.342586 0.719707 0.002527 -0.000786 -0.0 -6.470511 -24.769864 -108.494121 -44.726249 -18.188633 26.419136 -152.109649 -83.446841 -60.434088 -0.002309 -0.00089 -0.001155 10.287982 -24.794527 103.016336 40.877198 -9.064708 -94.300006 -108.331609 -25.821717 -5.60105
